<svg xmlns:dc="http://purl.org/dc/elements/1.1/" xmlns:cc="http://creativecommons.org/ns#" xmlns:rdf="http://www.w3.org/1999/02/22-rdf-syntax-ns#" xmlns:svg="http://www.w3.org/2000/svg" xmlns="http://www.w3.org/2000/svg" xmlns:sodipodi="http://sodipodi.sourceforge.net/DTD/sodipodi-0.dtd" xmlns:inkscape="http://www.inkscape.org/namespaces/inkscape" version="1.1" width="100" height="125" style=""><rect id="backgroundrect" width="100%" height="100%" x="0" y="0" fill="none" stroke="none"/><g class="currentLayer" style=""><title>Layer 1</title><g id="svg_1" class="" fill="#ff6363" fill-opacity="1"><path d="m89.39754950483322,4.843918890347639 a2.826458006567452,2.630846150058547 0 0 1 2.826175389028549,2.630583091749372 l0,14.902253214760194 a2.826458006567452,2.630846150058547 0 0 1 -2.826175389028549,2.630583091749372 l-1.667443479526844,0 l0,4.353615016845211 l1.667443479526844,0 a2.826458006567452,2.630846150058547 0 0 1 2.826175389028549,2.630583091749372 l0,65.77776966793942 l0,20.18972522917643 a2.826458006567452,2.630846150058547 0 0 1 -2.826175389028549,2.630583091749372 l-24.333370099535806,0 l-55.03976570133099,0 a2.826458006567452,2.630846150058547 0 0 1 -2.826175389028549,-2.630583091749372 l0,-10.088286156858842 c0,-5.681796419869469 3.1983261642558283,-9.945708553286027 7.7401878467019385,-12.135668977167379 c4.541847551569165,-2.1899604238813533 10.19429724576488,-2.7734237536313633 16.2164954661072,-2.7913117186552587 c10.60170455897029,-0.0315669971009925 22.61687834613237,1.842328868306673 30.661798554156316,2.3210949910050602 c-0.34436947115312916,-2.962168090464382 -1.0728727011830184,-7.32367485658484 -1.8560059014828287,-12.224845743977681 c-1.082834969429344,-6.776645102655557 -2.240577717544889,-14.743234466863944 -2.490567061581409,-22.440452122477193 c-0.2499752131595754,-7.697349184767838 0.3387736438828526,-15.13164006036074 3.15296604926192,-21.038877451193127 c2.8141782745021224,-5.907368919986977 8.488559089716698,-10.199730809540805 16.60775118696431,-10.199730809540805 l4.846890792183961,0 l0,-4.353615016845211 l-11.926460141700476,0 a2.826458006567452,2.630846150058547 0 0 1 -2.826175389028549,-2.630583091749372 l0,-7.457703065109469 c0,-5.522856589465973 4.875505817997876,-10.075133241400097 10.824251739979344,-10.075133241400097 l11.248178048333626,0 zm-2.826175389028549,5.261166183498744 l-8.422002659305075,0 c-2.8689354226645514,0 -5.171900961922245,2.1557102320267756 -5.171900961922245,4.813967057901351 l0,4.827119973360097 l13.593903621227323,0 l0,-9.64108703126145 zm0,24.517073873850524 l-9.340509660739354,0 c-6.209531256004077,0 -9.247274134655301,2.466566235978799 -11.440711246711194,7.070875821467724 c-2.1934512429328374,4.6043095854889255 -2.9078235960175842,11.434355524906996 -2.6702976854466804,18.7479026365886 c0.23752591057090477,7.313415582527017 1.3579490126743279,15.10401893789737 2.4318391369973957,21.824764149853255 c1.073890124323068,6.720613682801297 2.126696980243983,12.198408383905601 2.126696980243983,15.740356987791543 a2.826458006567452,2.630846150058547 0 0 1 -2.8429628708393793,2.630583091749372 c-8.93279146824115,-0.04866578719736344 -22.475654361942617,-2.464856356969162 -33.66239135731876,-2.43171101001312 c-5.593368497688073,0.01709879009637094 -10.510828889336077,0.6951315819947723 -13.634967949629905,2.2015349894850504 c-3.124153191170775,1.5064034074902781 -4.687480369365806,3.3733282277048073 -4.687480369365806,7.464279522838844 l0,7.457703065109469 l52.21359031230244,0 l21.507194710507257,0 l0,-17.55914213742706 l0,-63.14714711744367 z" style="text-indent:0;text-transform:none;direction:ltr;block-progression:tb;baseline-shift:baseline;color:#000000;enable-background:accumulate;" fill="#ff6363" fill-opacity="1" fill-rule="evenodd" stroke="none" marker="none" visibility="visible" display="inline" overflow="visible" id="svg_2"/></g></g></svg>