<svg width="13" height="13" viewBox="0 0 13 13" fill="none" xmlns="http://www.w3.org/2000/svg">
<path d="M4.60425 9.75002C5.58629 8.6916 7.40304 8.64177 8.39591 9.75002M7.55091 6.50002C7.55091 7.09856 7.07912 7.58335 6.49629 7.58335C5.914 7.58335 5.44166 7.09856 5.44166 6.50002C5.44166 5.90148 5.914 5.41669 6.49629 5.41669C7.07858 5.41669 7.55146 5.90148 7.55146 6.50002" stroke="#626262" stroke-linecap="round" stroke-linejoin="round"/>
<path d="M5.14587 2.16776C3.71371 2.17317 2.94725 2.22301 2.45108 2.69317C1.89587 3.21913 1.89587 4.06576 1.89587 5.75901V8.32488C1.89587 10.0181 1.89587 10.8653 2.45108 11.3907C3.00629 11.9172 3.90004 11.9172 5.68754 11.9172H7.31254C9.10004 11.9172 9.99379 11.9172 10.549 11.3913C11.1042 10.8648 11.1042 10.0181 11.1042 8.32542V5.75901C11.1042 4.06576 11.1042 3.21913 10.549 2.69317C10.0528 2.22301 9.28692 2.17317 7.85421 2.16776" stroke="#626262" stroke-linecap="round" stroke-linejoin="round"/>
<path d="M5.29319 1.96734C5.34519 1.74255 5.37119 1.62989 5.42102 1.53834C5.48298 1.42942 5.56727 1.33484 5.66838 1.26081C5.76948 1.18678 5.8851 1.13497 6.00765 1.1088C6.11761 1.08334 6.24544 1.08334 6.50002 1.08334C6.75461 1.08334 6.88244 1.08334 6.9924 1.1088C7.11494 1.13497 7.23056 1.18678 7.33167 1.26081C7.43277 1.33484 7.51707 1.42942 7.57902 1.53834C7.62886 1.63043 7.65486 1.74255 7.70686 1.96734L7.75181 2.16234C7.8439 2.56047 7.88994 2.7598 7.82061 2.91309C7.77335 3.01484 7.69652 3.09997 7.60015 3.15739C7.44794 3.25001 7.22152 3.25001 6.76977 3.25001H6.23027C5.77852 3.25001 5.55211 3.25001 5.3999 3.15793C5.30344 3.10037 5.2266 3.01504 5.17944 2.91309C5.11011 2.7598 5.15615 2.56101 5.24823 2.16234L5.29319 1.96734Z" stroke="#626262" stroke-linecap="round" stroke-linejoin="round"/>
</svg>
